<svg xmlns="http://www.w3.org/2000/svg" enable-background="new 0 0 24 24" viewBox="0 0 24 24"><path fill="#791C12" d="M23.811 3.197l.005.001c-.392-1.663-1.598-2.737-3.652-3.071L20.15.134l-.01-.003-3.656 2.02.002.002-.024.014.049.008 6.869 5.617-8.776.587h0l2.361 9.352c2.778-2.921 5.27-6.061 6.491-9.943h-.01C23.91 6.369 24.191 4.656 23.811 3.197L23.811 3.197zM7.735 14.771L7.735 14.771H7.732l.002.004-2.768 9.168c2.417-.227 4.534-.979 6.458-2.047l.009.016c1.982-1.075 3.568-2.367 5.016-3.752.16-.146.324-.287.482-.435L7.735 14.771 7.735 14.771z"/><path fill="#791C12" d="M1.645,16.189l-0.013-0.032l-0.009,0.014l-0.006-0.005l-0.002,0.02L0,19.142c0.131,4.706,3.526,4.776,4.973,4.817L4.53,22.926C3.482,20.322,1.892,16.402,1.645,16.189L1.645,16.189z"/><polygon fill="#BF190B" points="13.561 .097 16.486 2.162 20.168 .127"/><polygon fill="#BF190B" points="23.418 7.823 16.54 2.207 14.592 8.397 7.722 14.781 16.983 17.74 14.598 8.4 23.418 7.823"/><linearGradient id="a" x1="-1317.319" x2="-1316.319" y1="-2392.454" y2="-2392.454" gradientTransform="scale(-51.4383 51.4383) rotate(80.131 -2080.943 -413.66)" gradientUnits="userSpaceOnUse"><stop offset="0" stop-color="#871101"/><stop offset="0" stop-color="#871101"/><stop offset=".99" stop-color="#911209"/><stop offset="1" stop-color="#911209"/></linearGradient><path fill="url(#a)" d="M24,4.873l-0.015,0.03l0,0.001c-0.028,0.954-0.233,1.926-0.51,2.794c-0.001,0.003-0.002,0.005-0.002,0.008c-0.004,0.011-0.007,0.022-0.011,0.033c-0.001,0.002-0.001,0.005-0.002,0.007c-0.004,0.013-0.009,0.026-0.013,0.039l0,0h0.01l0,0c-0.151,0.481-0.322,0.951-0.511,1.411c-0.001,0.003-0.003,0.007-0.004,0.01c-0.008,0.02-0.016,0.04-0.025,0.059c-0.004,0.009-0.008,0.019-0.012,0.028c-0.006,0.015-0.012,0.029-0.018,0.043c-0.006,0.014-0.012,0.029-0.018,0.043c-0.004,0.01-0.009,0.021-0.013,0.031c-0.008,0.018-0.016,0.037-0.024,0.055c-0.003,0.008-0.006,0.015-0.01,0.023c-0.009,0.021-0.018,0.042-0.027,0.063c-0.003,0.008-0.007,0.015-0.01,0.023c-0.009,0.021-0.019,0.043-0.028,0.064c-0.001,0.002-0.002,0.004-0.003,0.006c-0.012,0.026-0.023,0.053-0.035,0.079c-0.001,0.002-0.002,0.004-0.003,0.006c-0.012,0.026-0.024,0.053-0.036,0.079c-0.001,0.003-0.003,0.006-0.004,0.009c-0.938,2.068-2.231,3.926-3.697,5.67c-0.001,0.001-0.001,0.001-0.001,0.001c-0.02,0.023-0.038,0.046-0.057,0.068c-0.006,0.007-0.011,0.013-0.017,0.02c-0.014,0.017-0.028,0.034-0.042,0.05c-0.01,0.011-0.019,0.023-0.029,0.034c-0.01,0.012-0.02,0.024-0.03,0.036c-0.014,0.017-0.029,0.034-0.043,0.051c-0.005,0.006-0.01,0.012-0.016,0.018c-0.444,0.518-0.902,1.026-1.37,1.527l5.275,5.275L24,4.873L24,4.873z"/><path fill="#E82609" d="M5.126,5.127c3.565-3.535,8.161-5.623,9.924-3.844c1.762,1.779-0.107,6.104-3.672,9.638c-3.565,3.533-8.104,5.736-9.867,3.957C-0.251,13.099,1.562,8.66,5.126,5.127L5.126,5.127z"/><path fill="#691810" d="M16.696 16.617l.281 1.099c.133-.14.266-.281.397-.422L16.696 16.617 16.696 16.617zM7.732 14.784l-2.765 9.159c.098-.009.196-.019.293-.03 2.296-.259 4.319-.992 6.165-2.017l.009.016c1.982-1.075 3.568-2.367 5.016-3.752.16-.146.324-.287.482-.435l-.577-.185L7.732 14.784 7.732 14.784zM7.732 14.771L7.732 14.771 7.732 14.771 7.732 14.771 7.732 14.771zM1.632 16.157l-.009.014-.006-.005-.002.02L0 19.142c.129 4.636 3.426 4.773 4.907 4.815l0 0 .066.002-.006-.013 0 0L4.53 22.926c-1.048-2.604-2.638-6.524-2.885-6.737L1.632 16.157 1.632 16.157z"/><polygon fill="#A6160A" points="11.421 11.343 7.733 14.771 7.732 14.771 7.722 14.781 7.732 14.784 16.354 17.539 16.983 17.74 16.977 17.717 16.977 17.717 16.696 16.617 11.421 11.343"/><linearGradient id="b" x1="-1317.319" x2="-1316.319" y1="-2392.561" y2="-2392.561" gradientTransform="scale(-51.4383 51.4383) rotate(80.131 -2080.943 -413.66)" gradientUnits="userSpaceOnUse"><stop offset="0" stop-color="#760f01"/><stop offset="0" stop-color="#760f01"/><stop offset=".99" stop-color="#7e1008"/><stop offset="1" stop-color="#7e1008"/></linearGradient><path fill="url(#b)" d="M22.66,22.749l-0.026-0.003l0.002-0.018L22.66,22.749L22.66,22.749z M17.374,17.295c-0.132,0.141-0.264,0.282-0.397,0.422l0,0l0.006,0.023l-0.324-0.103l0.272,0.088l0,0c-0.158,0.149-0.322,0.289-0.482,0.435c-1.449,1.385-3.034,2.677-5.016,3.752l-0.009-0.016c-1.846,1.024-3.869,1.758-6.165,2.017c-0.097,0.011-0.194,0.021-0.292,0.03l-0.001,0.003l0,0l0.006,0.013l-0.066-0.002l0,0l-0.015,0.01l17.742-1.204l0-0.009l0.049-0.003l-0.021-0.001l-0.017-0.125l0.004-0.054L17.374,17.295L17.374,17.295z"/><path fill="#CA2108" d="M5.166,5.088C5.153,5.101,5.14,5.114,5.126,5.127c-3.565,3.534-5.378,7.973-3.614,9.751c0.429,0.433,1.021,0.63,1.724,0.63c2.137,0,5.292-1.823,7.951-4.399L5.166,5.088L5.166,5.088z"/><polygon fill="#BF190B" points="1.628 16.177 .321 12.469 0 19.184 1.645 16.184 4.966 23.946 4.967 23.946 7.757 14.803 7.615 14.834"/></svg>